<svg xmlns="http://www.w3.org/2000/svg" viewBox="0 0 320 410"><rect x="34" y="20" width="250" height="360" rx="14" fill="#aec397"/><rect x="34" y="20" width="34" height="360" fill="#56865c"/><path d="M84 38h178v310H84z" fill="none" stroke="#7b9169"/><g stroke="#8da57a" opacity=".35"><path d="M100 20v360M130 20v360M160 20v360M190 20v360M220 20v360M250 20v360"/><path d="M34 60h250M34 100h250M34 140h250M34 180h250M34 220h250M34 260h250M34 300h250M34 340h250"/></g><text x="103" y="150" font-family="Georgia" font-size="42" font-weight="700" fill="#31551f">Ученикам</text><text x="122" y="202" font-family="Arial" font-size="15" fill="#2d3c22">Ваше личное</text><text x="103" y="222" font-family="Arial" font-size="15" fill="#2d3c22">образовательное</text><text x="126" y="242" font-family="Arial" font-size="15" fill="#2d3c22">пространство</text><rect x="117" y="280" width="130" height="64" rx="8" fill="#eee8d8" stroke="#c5bda8"/><path d="M140 304h82M140 322h82" stroke="#80907f"/></svg>
